<svg xmlns="http://www.w3.org/2000/svg" width="780" height="400" viewBox="0 0 780 400" font-family="Arial, Helvetica, sans-serif">

  <!-- Title -->
  <text x="390" y="32" font-size="18" font-weight="bold" fill="#111827" text-anchor="middle">Head-to-head · 19 tasks · objective scoring (pytest + coverage)</text>

  <!-- ============ LEFT CARD (FuXi) ============ -->
  <rect x="40" y="56" width="325" height="284" rx="12" fill="#f8fafc" stroke="#e5e7eb" stroke-width="1.5"/>
  <!-- header -->
  <path d="M40,68 a12,12 0 0 1 12,-12 h301 a12,12 0 0 1 12,12 v36 h-325 z" fill="#0a6fe7"/>
  <text x="202.5" y="86" font-size="16" font-weight="bold" fill="#ffffff" text-anchor="middle">FuXi + deepseek</text>

  <!-- rows -->
  <text x="58" y="140" font-size="13" fill="#374151" text-anchor="start">15 micro dimensions</text>
  <text x="347" y="140" font-size="15" font-weight="bold" fill="#16a34a" text-anchor="end">15/15</text>
  <line x1="58" y1="152" x2="347" y2="152" stroke="#f3f4f6" stroke-width="1"/>

  <text x="58" y="180" font-size="13" fill="#374151" text-anchor="start">4 large-project (25+ files)</text>
  <text x="347" y="180" font-size="15" font-weight="bold" fill="#16a34a" text-anchor="end">4/4</text>
  <line x1="58" y1="192" x2="347" y2="192" stroke="#f3f4f6" stroke-width="1"/>

  <text x="58" y="220" font-size="13" fill="#374151" text-anchor="start">Total tasks</text>
  <text x="347" y="220" font-size="20" font-weight="bold" fill="#0a6fe7" text-anchor="end">19 / 19</text>
  <line x1="58" y1="232" x2="347" y2="232" stroke="#f3f4f6" stroke-width="1"/>

  <text x="58" y="260" font-size="13" fill="#374151" text-anchor="start">Pass rate</text>
  <text x="347" y="260" font-size="15" font-weight="bold" fill="#16a34a" text-anchor="end">100%</text>
  <line x1="58" y1="272" x2="347" y2="272" stroke="#f3f4f6" stroke-width="1"/>

  <text x="58" y="300" font-size="13" fill="#374151" text-anchor="start">Failures</text>
  <text x="347" y="300" font-size="15" font-weight="bold" fill="#16a34a" text-anchor="end">0</text>

  <!-- green bar -->
  <rect x="58" y="314" width="289" height="18" rx="9" fill="#dcfce7"/>
  <text x="202.5" y="327" font-size="11" font-weight="bold" fill="#16a34a" text-anchor="middle">identical · zero failures</text>

  <!-- ============ RIGHT CARD (Claude Code) ============ -->
  <rect x="415" y="56" width="325" height="284" rx="12" fill="#f8fafc" stroke="#e5e7eb" stroke-width="1.5"/>
  <!-- header -->
  <path d="M415,68 a12,12 0 0 1 12,-12 h301 a12,12 0 0 1 12,12 v36 h-325 z" fill="#111827"/>
  <text x="577.5" y="86" font-size="16" font-weight="bold" fill="#ffffff" text-anchor="middle">Claude Code + claude-opus-5</text>

  <!-- rows -->
  <text x="433" y="140" font-size="13" fill="#374151" text-anchor="start">15 micro dimensions</text>
  <text x="722" y="140" font-size="15" font-weight="bold" fill="#16a34a" text-anchor="end">15/15</text>
  <line x1="433" y1="152" x2="722" y2="152" stroke="#f3f4f6" stroke-width="1"/>

  <text x="433" y="180" font-size="13" fill="#374151" text-anchor="start">4 large-project (25+ files)</text>
  <text x="722" y="180" font-size="15" font-weight="bold" fill="#16a34a" text-anchor="end">4/4</text>
  <line x1="433" y1="192" x2="722" y2="192" stroke="#f3f4f6" stroke-width="1"/>

  <text x="433" y="220" font-size="13" fill="#374151" text-anchor="start">Total tasks</text>
  <text x="722" y="220" font-size="20" font-weight="bold" fill="#0a6fe7" text-anchor="end">19 / 19</text>
  <line x1="433" y1="232" x2="722" y2="232" stroke="#f3f4f6" stroke-width="1"/>

  <text x="433" y="260" font-size="13" fill="#374151" text-anchor="start">Pass rate</text>
  <text x="722" y="260" font-size="15" font-weight="bold" fill="#16a34a" text-anchor="end">100%</text>
  <line x1="433" y1="272" x2="722" y2="272" stroke="#f3f4f6" stroke-width="1"/>

  <text x="433" y="300" font-size="13" fill="#374151" text-anchor="start">Failures</text>
  <text x="722" y="300" font-size="15" font-weight="bold" fill="#16a34a" text-anchor="end">0</text>

  <!-- green bar -->
  <rect x="433" y="314" width="289" height="18" rx="9" fill="#dcfce7"/>
  <text x="577.5" y="327" font-size="11" font-weight="bold" fill="#16a34a" text-anchor="middle">identical · zero failures</text>

  <!-- ============ CENTER EQUALITY BADGE ============ -->
  <circle cx="390" cy="198" r="20" fill="#ffffff" stroke="#0a6fe7" stroke-width="2.5"/>
  <text x="390" y="205" font-size="18" font-weight="bold" fill="#0a6fe7" text-anchor="middle">=</text>

  <!-- footer -->
  <text x="390" y="380" font-size="12" fill="#6b7280" text-anchor="middle">Tied on every dimension · full methodology in benchmark/REPORT.md</text>
</svg>
